<svg width="16" height="16" viewBox="0 0 16 16" fill="none" xmlns="http://www.w3.org/2000/svg">
<g clip-path="url(#clip0_1551_1346)">
<path d="M8 15C11.5899 15 14.5 12.0899 14.5 8.5C14.5 4.91015 11.5899 2 8 2C4.41015 2 1.5 4.91015 1.5 8.5C1.5 12.0899 4.41015 15 8 15Z" stroke="white"/>
<path d="M5.65685 2.12132C4.48528 0.949748 2.74408 0.791456 1.76777 1.76777C0.791456 2.74408 0.949748 4.48528 2.12132 5.65685" stroke="white"/>
<path d="M10 2.12132C11.1716 0.949748 12.9128 0.791456 13.8891 1.76777C14.8654 2.74408 14.7071 4.48528 13.5355 5.65685" stroke="white"/>
<path d="M8.5 4.5C8.5 4.22386 8.27614 4 8 4C7.72386 4 7.5 4.22386 7.5 4.5V8.5C7.5 8.77614 7.72386 9 8 9C8.27614 9 8.5 8.77614 8.5 8.5V4.5Z" fill="white"/>
<path d="M10.3671 10.8267C10.5933 10.9851 10.905 10.9301 11.0634 10.7039C11.2218 10.4777 11.1668 10.1659 10.9406 10.0075L8.48319 8.28679C8.25698 8.1284 7.94521 8.18338 7.78682 8.40958C7.62843 8.63578 7.68341 8.94755 7.90961 9.10594L10.3671 10.8267Z" fill="white"/>
<path d="M12.1239 15.3625C12.2184 15.622 12.5053 15.7558 12.7648 15.6613C13.0243 15.5669 13.1581 15.2799 13.0636 15.0204L12.7216 14.0808C12.6271 13.8213 12.3402 13.6875 12.0807 13.7819C11.8212 13.8764 11.6875 14.1633 11.7819 14.4228L12.1239 15.3625Z" fill="white"/>
<path d="M4.06358 15.3625C3.96914 15.622 3.68222 15.7558 3.42273 15.6613C3.16324 15.5669 3.02944 15.2799 3.12389 15.0205L3.46591 14.0808C3.56036 13.8213 3.84728 13.6875 4.10677 13.7819C4.36626 13.8764 4.50005 14.1633 4.4056 14.4228L4.06358 15.3625Z" fill="white"/>
</g>
<defs>
<clipPath id="clip0_1551_1346">
<rect width="16" height="16" fill="white"/>
</clipPath>
</defs>
</svg>
