<svg width="73" height="28" viewBox="0 0 73 28" fill="none" xmlns="http://www.w3.org/2000/svg">
<g clip-path="url(#clip0_1551_603)">
<path d="M58.2552 27.791H14.7448C12.8866 27.7917 11.0466 27.4354 9.32971 26.7426C7.61283 26.0498 6.05278 25.0341 4.73865 23.7534C3.42453 22.4727 2.38208 20.9522 1.67086 19.2787C0.959634 17.6051 0.593567 15.8114 0.593567 14C0.593567 12.1885 0.959634 10.3948 1.67086 8.72124C2.38208 7.04772 3.42453 5.52719 4.73865 4.24651C6.05278 2.96583 7.61283 1.95008 9.32971 1.25729C11.0466 0.564502 12.8866 0.208243 14.7448 0.208863H58.2552C60.1133 0.208243 61.9534 0.564502 63.6702 1.25729C65.3871 1.95008 66.9472 2.96583 68.2613 4.24651C69.5754 5.52719 70.6179 7.04772 71.3291 8.72124C72.0403 10.3948 72.4064 12.1885 72.4064 14C72.4064 15.8114 72.0403 17.6051 71.3291 19.2787C70.6179 20.9522 69.5754 22.4727 68.2613 23.7534C66.9472 25.0341 65.3871 26.0498 63.6702 26.7426C61.9534 27.4354 60.1133 27.7917 58.2552 27.791ZM14.7448 0.693916C12.952 0.693307 11.1766 1.03703 9.52014 1.70545C7.86364 2.37386 6.35844 3.35388 5.09053 4.58952C3.82262 5.82516 2.81683 7.29222 2.13061 8.90688C1.4444 10.5215 1.0912 12.2522 1.0912 14C1.0912 15.7477 1.4444 17.4784 2.13061 19.093C2.81683 20.7077 3.82262 22.1747 5.09053 23.4104C6.35844 24.646 7.86364 25.626 9.52014 26.2945C11.1766 26.9629 12.952 27.3066 14.7448 27.306H58.2552C60.048 27.3066 61.8233 26.9629 63.4798 26.2945C65.1363 25.626 66.6415 24.646 67.9094 23.4104C69.1773 22.1747 70.1831 20.7077 70.8693 19.093C71.5555 17.4784 71.9087 15.7477 71.9087 14C71.9087 12.2522 71.5555 10.5215 70.8693 8.90688C70.1831 7.29222 69.1773 5.82516 67.9094 4.58952C66.6415 3.35388 65.1363 2.37386 63.4798 1.70545C61.8233 1.03703 60.048 0.693307 58.2552 0.693916H14.7448Z" fill="#30373F"/>
<path d="M58.2493 25.9942H14.7506C13.1345 25.9948 11.5342 25.685 10.041 25.0825C8.54779 24.4799 7.19097 23.5966 6.04804 22.4827C4.90511 21.3689 3.99846 20.0465 3.37989 18.591C2.76131 17.1355 2.44293 15.5755 2.44293 14C2.44293 12.4246 2.76131 10.8645 3.37989 9.40904C3.99846 7.95355 4.90511 6.63113 6.04804 5.51731C7.19097 4.40349 8.54779 3.5201 10.041 2.9176C11.5342 2.31509 13.1345 2.00528 14.7506 2.00586H58.2493C61.5123 2.00586 64.6417 3.26953 66.949 5.51887C69.2563 7.76821 70.5525 10.819 70.5525 14C70.5525 17.1811 69.2563 20.2318 66.949 22.4812C64.6417 24.7305 61.5123 25.9942 58.2493 25.9942ZM14.7506 2.16754C13.1563 2.16697 11.5776 2.4726 10.1045 3.06698C8.63139 3.66136 7.29286 4.53285 6.16533 5.63165C5.0378 6.73046 4.14338 8.03505 3.53314 9.47092C2.9229 10.9068 2.60881 12.4458 2.60881 14C2.60881 15.5543 2.9229 17.0933 3.53314 18.5291C4.14338 19.965 5.0378 21.2696 6.16533 22.3684C7.29286 23.4672 8.63139 24.3387 10.1045 24.9331C11.5776 25.5274 13.1563 25.8331 14.7506 25.8325H58.2493C59.8436 25.8331 61.4224 25.5274 62.8955 24.9331C64.3685 24.3387 65.7071 23.4672 66.8346 22.3684C67.9621 21.2696 68.8566 19.965 69.4668 18.5291C70.077 17.0933 70.3911 15.5543 70.3911 14C70.3911 12.4458 70.077 10.9068 69.4668 9.47092C68.8566 8.03505 67.9621 6.73046 66.8346 5.63165C65.7071 4.53285 64.3685 3.66136 62.8955 3.06698C61.4224 2.4726 59.8436 2.16697 58.2493 2.16754H14.7506Z" fill="#30373F"/>
<path d="M16.908 11.0721C18.6997 11.0721 20.0068 12.1028 20.0068 13.4057C20.0068 14.5798 18.9495 15.5392 17.4368 15.711V17.3574C18.2297 17.3432 18.9935 17.3145 19.7424 17.2714C20.4767 17.2285 20.8881 17.1425 21.2405 16.9279C21.7042 16.9534 22.1655 17.0108 22.6209 17.0997C22.9881 17.1712 23.1791 17.3432 23.1791 17.5436C23.1791 17.8442 22.9881 17.9873 22.6209 17.9873C22.4299 17.9873 21.9748 17.9586 21.3432 17.9015C21.0937 17.8871 20.4473 17.8729 19.5954 17.8729C17.6864 17.9015 15.7477 17.9586 13.8091 18.0588C13.3996 18.0806 13.0016 18.1985 12.649 18.4026C12.1203 18.3597 11.3419 18.0304 10.916 17.744C10.8595 17.7067 10.8119 17.658 10.7764 17.6012C10.741 17.5444 10.7184 17.4808 10.7104 17.4147C10.7104 17.2714 10.872 17.2285 11.1803 17.2714C11.8162 17.374 12.46 17.422 13.1044 17.4147C14.2939 17.4147 15.41 17.4003 16.4673 17.3861V15.7252C14.8958 15.5676 13.8091 14.6085 13.8091 13.4057C13.8091 12.1028 15.1162 11.0721 16.908 11.0721ZM12.1203 10.256C12.0678 10.214 12.0249 10.1618 11.9946 10.1026C11.9642 10.0434 11.947 9.9786 11.9441 9.91248C11.9441 9.78362 12.076 9.71183 12.3552 9.75495C12.9169 9.85729 13.4876 9.90522 14.0589 9.89804C15.3657 9.89804 17.5248 9.86938 18.4647 9.79783C19.1111 9.74051 19.4782 9.66897 19.8012 9.45433C20.2304 9.48533 20.6571 9.54269 21.0789 9.62608C21.4166 9.69763 21.5782 9.86938 21.5782 10.0698C21.5782 10.3706 21.4166 10.5137 21.0789 10.5137C20.9025 10.5137 20.3005 10.4564 19.8746 10.4277C19.5222 10.3991 18.9347 10.3991 18.3325 10.3991C17.4368 10.3991 15.6301 10.4422 14.6756 10.5424C14.3105 10.5686 13.9575 10.6817 13.6475 10.8717C13.096 10.7859 12.5728 10.575 12.1203 10.256ZM17.9947 8.89573C17.5688 8.89573 16.1297 8.89573 15.6743 8.93885C15.2895 8.77749 14.9441 8.53833 14.661 8.23716C14.5143 8.06541 14.6171 7.87922 14.9694 7.95098C15.131 7.97942 15.5128 8.03674 15.7477 8.06541C16.1737 8.12273 17.3632 8.12273 18.0241 8.12273C18.4353 8.12273 18.6554 8.22294 18.6554 8.48068C18.6554 8.70977 18.3325 8.89573 17.9947 8.89573ZM16.908 15.038C17.9068 15.038 18.9786 14.408 18.9786 13.4057C18.9786 12.4037 17.9068 11.7735 16.908 11.7735C15.8799 11.7735 14.8372 12.4037 14.8372 13.4057C14.8372 14.4223 15.8799 15.038 16.908 15.038Z" fill="#30373F"/>
<path d="M26.1901 13.6779C26.1848 13.7237 26.1905 13.77 26.2066 13.8132C26.2226 13.8565 26.2487 13.8956 26.2828 13.9274C26.3169 13.9593 26.358 13.983 26.4031 13.9969C26.4481 14.0107 26.4958 14.0143 26.5424 14.0072C27.7992 13.9835 29.0519 13.859 30.2878 13.6348C30.6693 13.5491 30.7869 14.0214 30.3463 14.179C29.0148 14.6222 27.6251 14.8777 26.2195 14.9377C25.353 14.9377 25.1622 14.4367 25.1622 13.5777V10.6855C25.0006 10.4135 24.604 10.1987 24.2514 10.0984C23.8111 9.96957 23.8255 9.5832 24.2663 9.5832C24.6626 9.5832 25.5145 9.6834 26.1021 9.6834C26.5635 9.70024 27.0254 9.67622 27.4823 9.61163C27.7265 9.56296 27.954 9.45463 28.1435 9.29679C28.4905 9.268 28.8393 9.268 29.1862 9.29679C29.5238 9.31101 29.7002 9.43988 29.7002 9.6834C29.7002 10.0414 29.4064 10.1271 28.907 10.1416C27.8643 10.1844 27.2916 10.1844 26.2049 10.2418C26.1901 10.4135 26.1901 10.4851 26.1901 10.4995V11.8309C26.4608 11.8425 26.7319 11.8232 26.998 11.7735C27.2607 11.7298 27.5109 11.6323 27.7321 11.4874C28.0398 11.4612 28.3491 11.4564 28.6575 11.4729C28.995 11.4874 29.1274 11.6304 29.1274 11.8453C29.1274 12.2033 28.8779 12.2748 28.3783 12.289C27.512 12.3177 26.9244 12.3463 26.1901 12.3892L26.1901 13.6779ZM29.612 19.7342C30.7289 19.7643 31.8467 19.7356 32.9605 19.6482C33.2689 19.6195 33.7094 19.5051 33.9298 19.3047C34.3072 19.2831 34.6859 19.2975 35.0605 19.3475C35.3543 19.3762 35.692 19.5051 35.692 19.7913C35.692 20.0921 35.4276 20.2494 34.9431 20.2352C33.9298 20.2065 31.154 20.2925 29.5386 20.2925C28.7163 20.3496 28.2609 19.9774 28.2609 19.1758V18.4312C28.1287 18.102 27.7764 17.9873 27.4384 17.9015C26.998 17.7869 27.0272 17.4576 27.4823 17.4289C27.9231 17.4003 28.8922 17.5005 29.4064 17.5149C30.7577 17.5436 32.6815 17.4576 33.4744 17.4003C33.5187 17.0139 33.5478 16.3409 33.5478 15.9687C32.4905 15.9114 30.8309 16.0258 29.7882 16.1118C29.361 16.1444 28.9433 16.2511 28.5547 16.4269C28.0793 16.281 27.6325 16.0583 27.2328 15.7681C26.9684 15.5392 27.2036 15.3386 27.4384 15.3817C27.6736 15.4246 28.3195 15.4675 28.5547 15.4819C30.0234 15.5392 32.2704 15.4388 33.0339 15.3959C33.5918 15.3672 34.253 15.3244 34.4586 15.2957C34.7815 15.2528 34.8989 15.3959 34.8989 15.5248C34.8702 15.7095 34.8107 15.8884 34.723 16.0545C34.6053 16.4984 34.4438 16.9995 34.3116 17.3574C34.6345 17.3145 35.0313 17.3719 35.0017 17.7154C34.9873 17.9731 34.7081 18.0304 34.341 18.0018C32.3435 17.9873 30.5373 18.0446 29.3182 18.102C29.3076 18.2018 29.3027 18.3022 29.3036 18.4026V19.3476C29.3036 19.5908 29.4064 19.7342 29.612 19.7342ZM32.6961 8.8673C32.6342 9.20772 32.5998 9.55236 32.5933 9.89804V12.3321C32.5933 12.9189 32.6375 14.7515 32.0352 14.7515C31.8148 14.7515 31.6534 14.4367 31.6534 13.7923V11.8453C31.5102 11.8609 31.368 11.8848 31.2277 11.9169C30.9902 11.9613 30.7619 12.0435 30.5519 12.1601C30.1548 12.088 29.7788 11.9316 29.4506 11.702C29.1862 11.4729 29.3622 11.2583 29.612 11.3012C29.7882 11.3298 30.4049 11.3298 30.6989 11.3298C31.0179 11.3268 31.3365 11.3077 31.6534 11.2725V9.56875C31.3752 9.26906 31.0204 9.0467 30.6253 8.92439C30.2141 8.7813 30.2581 8.43757 30.6841 8.43757C31.0219 8.43757 32.2847 8.56644 32.6961 8.8673ZM34.9725 8.07986C34.9107 8.42029 34.8763 8.76493 34.8697 9.1106V12.4752C34.8697 13.0622 34.8989 14.8949 34.297 14.8949C34.0766 14.8949 33.9298 14.5798 33.9298 13.9354V8.78131C33.6315 8.47137 33.2577 8.23988 32.8431 8.10829C32.4171 7.9652 32.4611 7.6217 32.9017 7.6217C33.2543 7.6217 34.5614 7.77901 34.9725 8.07986Z" fill="#30373F"/>
<path d="M39.7166 10.4563C41.2732 10.4563 42.4187 11.4442 42.6539 12.7616C43.1385 12.7758 43.6818 12.7616 44.2546 12.7471V9.91243C44.2546 9.36828 43.7112 9.15342 43.153 8.96745C42.9771 8.89567 42.8887 8.82413 42.8887 8.73837C42.8887 8.62372 43.0211 8.48063 43.3001 8.48063C43.5642 8.48063 45.0183 8.68105 45.2533 8.79547L45.1945 9.55448V16.1977C45.1945 16.9278 45.2093 19.5192 44.5777 19.5192C44.3573 19.5192 44.2546 18.918 44.2546 17.7439V13.3055C44.1078 13.3199 43.9756 13.3486 43.8728 13.3628C43.6737 13.4045 43.4844 13.4822 43.3146 13.5919C43.1091 13.5526 42.9076 13.4951 42.7127 13.4201C42.6391 14.9377 41.4348 16.0975 39.7166 16.0975C37.9247 16.0975 36.7206 14.8661 36.7206 13.2913C36.7206 11.7164 37.9247 10.4563 39.7166 10.4563ZM39.7314 15.353C40.8329 15.353 41.6844 14.5224 41.6844 13.2339C41.6844 11.9597 40.8329 11.1149 39.7314 11.1149C38.6299 11.1149 37.7928 11.9597 37.7928 13.2339C37.7928 14.5224 38.6299 15.353 39.7314 15.353ZM47.6619 8.72392V17.0567C47.6619 17.8013 47.6767 20.3782 47.0303 20.3782C46.8099 20.3782 46.7071 19.777 46.7071 18.6029V8.99611C46.7071 8.65237 46.34 8.38042 45.6204 8.10823C45.4588 8.03669 45.3412 7.96514 45.3412 7.87916C45.3412 7.77895 45.4882 7.63586 45.782 7.63586C46.0464 7.63586 47.4709 7.82206 47.7207 7.95093L47.6619 8.72392Z" fill="#30373F"/>
<path d="M54.6381 9.15347C54.4569 9.79783 54.1956 10.4181 53.8597 11.0005L54.6969 11.6591C55.0789 11.9597 55.4458 12.2175 55.8718 12.2033C56.2095 12.4894 56.8411 13.0909 56.9878 13.5059C57.1788 13.9786 56.7383 14.3652 56.2535 13.9786L53.522 11.5589C52.7142 12.7472 51.5979 13.7208 50.2323 14.5656C49.8209 14.8233 49.5421 14.4654 49.8945 14.179C51.4951 12.876 52.773 11.2725 53.3161 9.5832C53.243 9.35389 52.9346 9.09638 52.582 8.92439C52.1415 8.70976 52.4205 8.45202 52.773 8.48069C53.4486 8.53801 54.3737 8.88151 54.6381 9.15347ZM51.5833 18.1877C51.4805 17.9302 51.2162 17.7582 50.8784 17.6725C50.4378 17.5578 50.4672 17.2285 50.9224 17.1999C51.5258 17.1945 52.129 17.2232 52.7291 17.2858C53.1131 17.3099 53.4988 17.281 53.8746 17.1999C53.9185 16.8132 53.9477 16.1547 53.9477 15.7825C53.6981 15.7825 53.1106 15.8254 52.8904 15.8541C52.5401 15.8922 52.1981 15.984 51.8771 16.126C51.4772 16.0232 51.1026 15.8431 50.7756 15.5963C50.5112 15.3672 50.7462 15.1668 50.9812 15.2097C51.2161 15.2528 51.7449 15.2815 52.0239 15.2957C52.4796 15.3043 52.9355 15.2899 53.3898 15.2528C53.9477 15.2097 54.4913 15.1813 54.6968 15.1526C55.02 15.1095 55.1374 15.2528 55.1374 15.3817C55.1009 15.5553 55.0416 15.7237 54.9612 15.8827C54.8436 16.2835 54.7117 16.8277 54.6232 17.157C54.9024 17.1141 55.1228 17.1999 55.0932 17.4863C55.064 17.7295 54.8584 17.7727 54.6232 17.7582C53.9037 17.7727 53.3018 17.8155 52.5674 17.8584C52.5567 17.9583 52.5517 18.0588 52.5526 18.1593V19.0469C52.5526 19.276 52.626 19.3762 52.861 19.3762C53.3018 19.3762 54.5058 19.1471 55.3576 18.8894C55.6956 18.7892 55.8423 19.1758 55.4164 19.3762C54.5204 19.8057 53.2576 20.221 52.6554 20.2638C51.7891 20.3212 51.5833 19.8057 51.5833 18.9467L51.5833 18.1877ZM58.4565 15.3386C58.9556 15.2957 59.3085 15.267 59.5872 15.2528C59.9104 15.2384 59.984 15.3672 59.9692 15.4961C59.9544 15.625 59.8956 15.8398 59.8664 16.0402C59.7928 16.6844 59.6314 18.2308 59.5286 19.0756C59.7928 19.0183 60.0572 19.0898 60.0426 19.3475C60.028 19.6195 59.9104 19.7484 59.5141 19.7484C58.6033 19.7484 57.8544 19.7628 57.0466 19.777C57.0318 19.9488 56.8557 20.221 56.6501 20.2352C56.4445 20.2494 56.2975 20.0203 56.2683 19.691L56.0188 16.212C55.9646 16.094 55.8856 15.9884 55.7869 15.9021C55.6882 15.8158 55.572 15.7506 55.4458 15.711C55.064 15.5963 55.0492 15.2528 55.4752 15.2241C55.983 15.2229 56.4897 15.2708 56.9878 15.3672C57.4774 15.3947 57.9685 15.3851 58.4565 15.3386ZM57.0027 15.9543C56.9878 16.1547 56.9878 16.2407 56.9878 16.298L57.0615 19.19C57.6342 19.2045 58.2361 19.1614 58.8237 19.1185L58.8529 15.9114C58.3829 15.8969 57.5458 15.9114 57.0027 15.9543V15.9543ZM59.5872 8.07986C59.5254 8.4203 59.491 8.76493 59.4844 9.1106V11.8166C59.6314 11.8022 59.7784 11.8022 59.9104 11.788C60.2188 11.7547 60.5076 11.624 60.7327 11.4158C61.0654 11.392 61.3996 11.3967 61.7314 11.43C61.9666 11.4587 62.2896 11.5731 62.2896 11.8882C62.2896 12.1888 61.9518 12.3606 61.5407 12.3463C61.1147 12.3321 60.3364 12.3606 59.4844 12.375V12.4037C59.4844 12.9907 59.5141 14.8233 58.9117 14.8233C58.6915 14.8233 58.5299 14.5083 58.5299 13.8639V8.78131C58.2215 8.42336 57.6634 8.20873 57.355 8.10829C56.9145 7.9652 56.9587 7.6217 57.4138 7.6217C57.781 7.6217 59.176 7.77901 59.5872 8.07986V8.07986Z" fill="#30373F"/>
</g>
<defs>
<clipPath id="clip0_1551_603">
<rect width="73" height="28" fill="white"/>
</clipPath>
</defs>
</svg>
