<svg width="66" height="28" viewBox="0 0 66 28" fill="none" xmlns="http://www.w3.org/2000/svg">
<path d="M13.704 21.848C13.352 22.056 12.952 22.248 12.504 22.424C12.056 22.6 11.592 22.752 11.112 22.88C10.648 23.008 10.176 23.104 9.696 23.168C9.232 23.248 8.8 23.288 8.4 23.288C6.272 23.288 4.6 22.728 3.384 21.608C2.184 20.472 1.584 18.864 1.584 16.784C1.584 15.168 1.808 13.696 2.256 12.368C2.72 11.024 3.384 9.88 4.248 8.936C5.112 7.976 6.16 7.232 7.392 6.704C8.64 6.176 10.048 5.912 11.616 5.912C12.672 5.912 13.576 5.984 14.328 6.128C15.08 6.256 15.704 6.456 16.2 6.728C16.152 6.968 16.08 7.264 15.984 7.616C15.904 7.968 15.8 8.336 15.672 8.72C15.56 9.104 15.44 9.488 15.312 9.872C15.184 10.24 15.064 10.568 14.952 10.856H14.328L13.824 7.4C13.536 7.32 13.176 7.264 12.744 7.232C12.312 7.184 11.896 7.16 11.496 7.16C10.264 7.16 9.184 7.416 8.256 7.928C7.344 8.424 6.584 9.104 5.976 9.968C5.368 10.832 4.912 11.848 4.608 13.016C4.304 14.168 4.152 15.408 4.152 16.736C4.152 17.872 4.312 18.792 4.632 19.496C4.952 20.184 5.344 20.72 5.808 21.104C6.288 21.488 6.792 21.744 7.32 21.872C7.864 22 8.36 22.056 8.808 22.04C9.448 22.056 10.04 21.96 10.584 21.752C11.128 21.544 11.504 21.36 11.712 21.2L12.768 16.352C12.352 16.32 11.968 16.248 11.616 16.136C11.264 16.024 10.92 15.904 10.584 15.776L10.752 15.08H16.632L16.488 15.776C16.312 15.888 16.096 15.992 15.84 16.088C15.584 16.184 15.256 16.272 14.856 16.352L13.704 21.848ZM17.8731 16.328C17.8731 14.872 18.0891 13.512 18.5211 12.248C18.9691 10.984 19.6091 9.888 20.4411 8.96C21.2731 8.016 22.2731 7.272 23.4411 6.728C24.6091 6.184 25.9291 5.912 27.4011 5.912C28.5691 5.912 29.5531 6.104 30.3531 6.488C31.1531 6.872 31.7931 7.376 32.2731 8C32.7691 8.624 33.1211 9.344 33.3291 10.16C33.5531 10.96 33.6651 11.792 33.6651 12.656C33.6651 13.936 33.4811 15.216 33.1131 16.496C32.7611 17.76 32.2091 18.896 31.4571 19.904C30.7051 20.912 29.7531 21.728 28.6011 22.352C27.4651 22.976 26.1131 23.288 24.5451 23.288C23.3931 23.288 22.3931 23.104 21.5451 22.736C20.7131 22.352 20.0251 21.848 19.4811 21.224C18.9371 20.584 18.5291 19.848 18.2571 19.016C18.0011 18.168 17.8731 17.272 17.8731 16.328ZM20.4411 16.352C20.4411 17.232 20.5531 18.024 20.7771 18.728C21.0171 19.432 21.3371 20.032 21.7371 20.528C22.1531 21.024 22.6331 21.408 23.1771 21.68C23.7371 21.936 24.3451 22.056 25.0011 22.04C26.1691 22.056 27.1371 21.776 27.9051 21.2C28.6891 20.608 29.3131 19.856 29.7771 18.944C30.2571 18.016 30.5931 17 30.7851 15.896C30.9931 14.776 31.0971 13.688 31.0971 12.632C31.0971 11.816 31.0011 11.072 30.8091 10.4C30.6331 9.728 30.3611 9.152 29.9931 8.672C29.6251 8.192 29.1691 7.824 28.6251 7.568C28.0971 7.296 27.4811 7.16 26.7771 7.16C25.6731 7.16 24.7211 7.448 23.9211 8.024C23.1211 8.6 22.4571 9.336 21.9291 10.232C21.4171 11.128 21.0411 12.12 20.8011 13.208C20.5611 14.296 20.4411 15.344 20.4411 16.352Z" fill="#30373F"/>
<path d="M43.5 16.25H64.5L59.7723 11.75" stroke="#30373F"/>
<rect y="27" width="66" height="1" fill="#30373F"/>
</svg>
