<svg width="122" height="48" viewBox="0 0 122 48" fill="none" xmlns="http://www.w3.org/2000/svg">
<g clip-path="url(#clip0_1554_2246)">
<path d="M97.358 47.6419H24.642C21.5367 47.6429 18.4615 47.0322 15.5922 45.8446C12.7229 44.6569 10.1157 42.9157 7.91947 40.7202C5.72326 38.5247 3.98109 35.9181 2.79247 33.0492C1.60385 30.1803 0.992065 27.1054 0.992065 24C0.992065 20.8946 1.60385 17.8197 2.79247 14.9508C3.98109 12.0819 5.72326 9.47529 7.91947 7.27983C10.1157 5.08438 12.7229 3.3431 15.5922 2.15546C18.4615 0.967823 21.5367 0.357092 24.642 0.358156H97.358C100.463 0.357092 103.539 0.967823 106.408 2.15546C109.277 3.3431 111.884 5.08438 114.081 7.27983C116.277 9.47529 118.019 12.0819 119.208 14.9508C120.396 17.8197 121.008 20.8946 121.008 24C121.008 27.1054 120.396 30.1803 119.208 33.0492C118.019 35.9181 116.277 38.5247 114.081 40.7202C111.884 42.9157 109.277 44.6569 106.408 45.8446C103.539 47.0322 100.463 47.6429 97.358 47.6419V47.6419ZM24.642 1.18967C21.6459 1.18863 18.6788 1.77787 15.9104 2.92373C13.1421 4.06959 10.6265 5.74962 8.50754 7.86786C6.38856 9.9861 4.70765 12.501 3.56082 15.269C2.414 18.037 1.82373 21.0039 1.82373 24C1.82373 26.9962 2.414 29.963 3.56082 32.731C4.70765 35.499 6.38856 38.0139 8.50754 40.1322C10.6265 42.2504 13.1421 43.9305 15.9104 45.0763C18.6788 46.2222 21.6459 46.8114 24.642 46.8104H97.358C100.354 46.8114 103.321 46.2222 106.09 45.0763C108.858 43.9305 111.374 42.2504 113.493 40.1322C115.612 38.0139 117.292 35.499 118.439 32.731C119.586 29.963 120.176 26.9962 120.176 24C120.176 21.0039 119.586 18.037 118.439 15.269C117.292 12.501 115.612 9.9861 113.493 7.86786C111.374 5.74962 108.858 4.06959 106.09 2.92373C103.321 1.77787 100.354 1.18863 97.358 1.18967H24.642Z" fill="#30373F"/>
<path d="M97.3483 44.5616H24.6517C21.9509 44.5626 19.2764 44.0315 16.7809 42.9986C14.2854 41.9657 12.0178 40.4513 10.1077 38.5419C8.19763 36.6325 6.68241 34.3655 5.64863 31.8704C4.61485 29.3753 4.08276 26.7009 4.08276 24.0001C4.08276 21.2993 4.61485 18.625 5.64863 16.1299C6.68241 13.6348 8.19763 11.3678 10.1077 9.45836C12.0178 7.54895 14.2854 6.03456 16.7809 5.0017C19.2764 3.96884 21.9509 3.43773 24.6517 3.43872H97.3483C102.801 3.43872 108.031 5.60501 111.887 9.46102C115.743 13.317 117.91 18.5469 117.91 24.0001C117.91 29.4534 115.743 34.6833 111.887 38.5393C108.031 42.3953 102.801 44.5616 97.3483 44.5616V44.5616ZM24.6517 3.7159C21.9873 3.71491 19.3489 4.23885 16.887 5.25779C14.4251 6.27673 12.1881 7.7707 10.3038 9.65436C8.4194 11.538 6.9246 13.7745 5.90475 16.236C4.8849 18.6975 4.35999 21.3357 4.35999 24.0001C4.35999 26.6645 4.8849 29.3028 5.90475 31.7643C6.9246 34.2258 8.4194 36.4623 10.3038 38.3459C12.1881 40.2296 14.4251 41.7236 16.887 42.7425C19.3489 43.7614 21.9873 44.2854 24.6517 44.2844H97.3483C100.013 44.2854 102.651 43.7614 105.113 42.7425C107.575 41.7236 109.812 40.2296 111.696 38.3459C113.581 36.4623 115.075 34.2258 116.095 31.7643C117.115 29.3028 117.64 26.6645 117.64 24.0001C117.64 21.3357 117.115 18.6975 116.095 16.236C115.075 13.7745 113.581 11.538 111.696 9.65436C109.812 7.7707 107.575 6.27673 105.113 5.25779C102.651 4.23885 100.013 3.71491 97.3483 3.7159H24.6517Z" fill="#30373F"/>
<path d="M28.2574 18.9808C31.2516 18.9808 33.4361 20.7478 33.4361 22.9814C33.4361 24.994 31.6691 26.6388 29.1411 26.9332V29.7556C30.4662 29.7313 31.7426 29.6821 32.9942 29.6082C34.2215 29.5347 34.909 29.3873 35.4979 29.0194C36.2729 29.0631 37.0438 29.1615 37.8049 29.3138C38.4186 29.4364 38.7378 29.7313 38.7378 30.0748C38.7378 30.5902 38.4186 30.8355 37.8049 30.8355C37.4857 30.8355 36.7251 30.7863 35.6696 30.6885C35.2526 30.6637 34.1723 30.6393 32.7485 30.6393C29.5581 30.6885 26.3182 30.7863 23.0783 30.9581C22.394 30.9954 21.7289 31.1975 21.1396 31.5474C20.2559 31.4739 18.9551 30.9094 18.2432 30.4184C18.1488 30.3544 18.0693 30.2709 18.0101 30.1735C17.9508 30.0761 17.9131 29.9671 17.8997 29.8539C17.8997 29.6082 18.1697 29.5347 18.6851 29.6082C19.7476 29.7842 20.8236 29.8664 21.9006 29.8539C23.8885 29.8539 25.7537 29.8292 27.5207 29.8048V26.9576C24.8944 26.6875 23.0783 25.0432 23.0783 22.9814C23.0783 20.7478 25.2628 18.9808 28.2574 18.9808ZM20.2559 17.5818C20.1681 17.5099 20.0966 17.4203 20.0458 17.3188C19.9951 17.2173 19.9664 17.1063 19.9615 16.9929C19.9615 16.772 20.182 16.649 20.6486 16.7229C21.5873 16.8983 22.541 16.9805 23.4958 16.9682C25.6799 16.9682 29.2881 16.919 30.8589 16.7964C31.9391 16.6981 32.5528 16.5755 33.0925 16.2075C33.8097 16.2607 34.5229 16.359 35.2278 16.502C35.7923 16.6246 36.0623 16.919 36.0623 17.2626C36.0623 17.7784 35.7923 18.0236 35.2278 18.0236C34.933 18.0236 33.927 17.9254 33.2151 17.8762C32.6263 17.8271 31.6443 17.8271 30.638 17.8271C29.1411 17.8271 26.1217 17.901 24.5265 18.0728C23.9162 18.1177 23.3263 18.3115 22.8083 18.6373C21.8865 18.4902 21.0122 18.1287 20.2559 17.5818ZM30.0735 15.2499C29.3616 15.2499 26.9566 15.2499 26.1956 15.3238C25.5523 15.0472 24.9751 14.6372 24.5021 14.121C24.2568 13.8265 24.4286 13.5073 25.0175 13.6304C25.2875 13.6791 25.9255 13.7774 26.3182 13.8265C27.0301 13.9248 29.018 13.9248 30.1226 13.9248C30.8098 13.9248 31.1777 14.0966 31.1777 14.5384C31.1777 14.9311 30.638 15.2499 30.0735 15.2499V15.2499ZM28.2574 25.7794C29.9265 25.7794 31.7178 24.6996 31.7178 22.9814C31.7178 21.2636 29.9265 20.1833 28.2574 20.1833C26.5392 20.1833 24.7966 21.2636 24.7966 22.9814C24.7966 24.724 26.5392 25.7794 28.2574 25.7794Z" fill="#30373F"/>
<path d="M43.7698 23.448C43.7611 23.5264 43.7705 23.6058 43.7974 23.68C43.8242 23.7542 43.8678 23.8211 43.9248 23.8757C43.9818 23.9303 44.0505 23.9711 44.1258 23.9948C44.201 24.0185 44.2807 24.0246 44.3587 24.0125C46.4591 23.9719 48.5526 23.7584 50.618 23.3741C51.2556 23.2271 51.4521 24.0369 50.7159 24.3069C48.4906 25.0668 46.1681 25.5048 43.819 25.6077C42.3708 25.6077 42.052 24.7488 42.052 23.2762V18.3181C41.7819 17.8519 41.1192 17.4835 40.5299 17.3118C39.794 17.0908 39.818 16.4285 40.5547 16.4285C41.217 16.4285 42.6408 16.6003 43.6228 16.6003C44.3938 16.6291 45.1659 16.5879 45.9295 16.4772C46.3376 16.3938 46.7178 16.2081 47.0345 15.9375C47.6143 15.8881 48.1973 15.8881 48.7771 15.9375C49.3412 15.9619 49.636 16.1828 49.636 16.6003C49.636 17.2139 49.145 17.3609 48.3105 17.3857C46.5679 17.4592 45.6107 17.4592 43.7946 17.5575C43.7698 17.8519 43.7698 17.9745 43.7698 17.9993V20.2816C44.2222 20.3015 44.6754 20.2685 45.1201 20.1833C45.5591 20.1084 45.9773 19.9412 46.347 19.6928C46.8612 19.648 47.378 19.6397 47.8934 19.668C48.4575 19.6928 48.6788 19.938 48.6788 20.3064C48.6788 20.92 48.2617 21.0427 47.4268 21.067C45.979 21.1162 44.9971 21.1653 43.7698 21.2388L43.7698 23.448ZM49.4886 33.8301C51.3553 33.8819 53.2234 33.8327 55.0847 33.6827C55.6001 33.6336 56.3364 33.4374 56.7047 33.0939C57.3355 33.0569 57.9683 33.0815 58.5943 33.1674C59.0853 33.2165 59.6498 33.4374 59.6498 33.928C59.6498 34.4437 59.2079 34.7134 58.3982 34.689C56.7047 34.6399 52.0658 34.7873 49.366 34.7873C47.9917 34.8852 47.2306 34.2472 47.2306 32.8729V31.5965C47.0097 31.0321 46.4209 30.8355 45.856 30.6885C45.1201 30.4919 45.1688 29.9275 45.9295 29.8783C46.6662 29.8292 48.2857 30.001 49.145 30.0257C51.4034 30.0749 54.6185 29.9275 55.9437 29.8292C56.0176 29.1668 56.0663 28.0131 56.0663 27.3751C54.2993 27.2768 51.5256 27.473 49.783 27.6204C49.0692 27.6763 48.3711 27.8592 47.7216 28.1605C46.9272 27.9103 46.1804 27.5286 45.5124 27.0311C45.0706 26.6388 45.4637 26.2949 45.856 26.3688C46.2491 26.4423 47.3285 26.5158 47.7216 26.5405C50.1761 26.6388 53.9314 26.4666 55.2074 26.3931C56.1398 26.344 57.2448 26.2705 57.5884 26.2213C58.1281 26.1478 58.3243 26.3931 58.3243 26.6141C58.2763 26.9307 58.1769 27.2374 58.0302 27.5221C57.8337 28.2831 57.5636 29.1421 57.3427 29.7557C57.8824 29.6822 58.5456 29.7805 58.496 30.3693C58.4721 30.8112 58.0055 30.9094 57.3918 30.8603C54.0537 30.8355 51.0351 30.9338 48.9976 31.0321C48.9799 31.2033 48.9718 31.3753 48.9733 31.5474V33.1674C48.9733 33.5844 49.145 33.8301 49.4886 33.8301ZM54.6429 15.2012C54.5394 15.7848 54.482 16.3756 54.4711 16.9682V21.1409C54.4711 22.1469 54.545 25.2885 53.5383 25.2885C53.17 25.2885 52.9003 24.7488 52.9003 23.6442V20.3064C52.6609 20.3331 52.4233 20.374 52.1888 20.429C51.792 20.5052 51.4105 20.6461 51.0594 20.8461C50.3958 20.7224 49.7675 20.4542 49.219 20.0607C48.7771 19.668 49.0711 19.3001 49.4886 19.3736C49.783 19.4227 50.8137 19.4227 51.3051 19.4227C51.8382 19.4175 52.3706 19.3847 52.9003 19.3244V16.4037C52.4354 15.8899 51.8425 15.5088 51.1821 15.2991C50.4949 15.0538 50.5684 14.4646 51.2803 14.4646C51.8448 14.4646 53.9554 14.6855 54.6429 15.2012ZM58.4473 13.8513C58.344 14.4349 58.2866 15.0257 58.2755 15.6183V21.3862C58.2755 22.3925 58.3243 25.5342 57.3183 25.5342C56.95 25.5342 56.7047 24.9941 56.7047 23.8895V15.0538C56.2061 14.5225 55.5814 14.1257 54.8886 13.9001C54.1767 13.6548 54.2502 13.0659 54.9865 13.0659C55.5757 13.0659 57.7602 13.3356 58.4473 13.8513Z" fill="#30373F"/>
<path d="M66.3757 17.9254C68.9772 17.9254 70.8916 19.6189 71.2847 21.8772C72.0945 21.9016 73.0025 21.8772 73.9597 21.8525V16.993C73.9597 16.0602 73.0516 15.6918 72.1188 15.3731C71.8248 15.25 71.677 15.1274 71.677 14.9803C71.677 14.7838 71.8983 14.5385 72.3645 14.5385C72.806 14.5385 75.2361 14.8821 75.6288 15.0782L75.5305 16.3794V27.7678C75.5305 29.0194 75.5553 33.4618 74.4998 33.4618C74.1315 33.4618 73.9597 32.4311 73.9597 30.4185V22.8097C73.7144 22.8344 73.4935 22.8836 73.3217 22.9079C72.989 22.9795 72.6726 23.1127 72.3889 23.3007C72.0453 23.2333 71.7086 23.1347 71.3829 23.0062C71.2599 25.6077 69.2472 27.596 66.3757 27.596C63.381 27.596 61.3688 25.4851 61.3688 22.7853C61.3688 20.0855 63.381 17.9254 66.3757 17.9254ZM66.4004 26.3196C68.2413 26.3196 69.6643 24.8958 69.6643 22.687C69.6643 20.5026 68.2413 19.0544 66.4004 19.0544C64.5596 19.0544 63.1605 20.5026 63.1605 22.687C63.1605 24.8958 64.5596 26.3196 66.4004 26.3196ZM79.6541 14.9556V29.2403C79.6541 30.5167 79.6789 34.9344 78.5986 34.9344C78.2303 34.9344 78.0585 33.9037 78.0585 31.891V15.4222C78.0585 14.8329 77.4449 14.3667 76.2424 13.9001C75.9724 13.7775 75.7758 13.6548 75.7758 13.5074C75.7758 13.3356 76.0215 13.0903 76.5125 13.0903C76.9543 13.0903 79.3349 13.4095 79.7524 13.6304L79.6541 14.9556Z" fill="#30373F"/>
<path d="M91.313 15.6918C91.0104 16.7964 90.5735 17.8598 90.0123 18.8582L91.4113 19.9872C92.0497 20.5025 92.6629 20.9444 93.3748 20.92C93.9393 21.4106 94.9948 22.4417 95.2401 23.1532C95.5593 23.9634 94.823 24.6261 94.0128 23.9634L89.4478 19.8154C88.0979 21.8524 86.2322 23.5215 83.9499 24.9697C83.2624 25.4115 82.7966 24.7979 83.3854 24.3069C86.0605 22.0734 88.1962 19.3244 89.1038 16.4285C88.9816 16.0354 88.4662 15.5939 87.877 15.2991C87.1407 14.9312 87.6069 14.4893 88.1962 14.5385C89.3251 14.6367 90.8712 15.2256 91.313 15.6918ZM86.2079 31.1791C86.0361 30.7376 85.5942 30.4428 85.0298 30.2958C84.2935 30.0992 84.3426 29.5347 85.1033 29.4856C86.1117 29.4765 87.1199 29.5257 88.1227 29.633C88.7645 29.6743 89.409 29.6247 90.037 29.4856C90.1105 28.8228 90.1593 27.6939 90.1593 27.0559C89.7422 27.0559 88.7602 27.1294 88.3923 27.1785C87.8068 27.2439 87.2353 27.4012 86.6988 27.6447C86.0305 27.4685 85.4045 27.1597 84.858 26.7367C84.4161 26.344 84.8088 26.0004 85.2015 26.0739C85.5942 26.1478 86.4779 26.1969 86.9441 26.2213C87.7058 26.236 88.4677 26.2115 89.2268 26.1478C90.1592 26.0739 91.0677 26.0252 91.4113 25.976C91.9514 25.9021 92.1475 26.1478 92.1475 26.3687C92.0865 26.6664 91.9875 26.9551 91.8531 27.2276C91.6566 27.9148 91.436 28.8476 91.2882 29.4121C91.7549 29.3386 92.1232 29.4856 92.0737 29.9766C92.0249 30.3937 91.6813 30.4676 91.2882 30.4428C90.0858 30.4676 89.0798 30.5411 87.8526 30.6146C87.8346 30.7859 87.8263 30.9581 87.8278 31.1303V32.652C87.8278 33.0447 87.9504 33.2165 88.3432 33.2165C89.0798 33.2165 91.0921 32.8238 92.5155 32.3819C93.0804 32.2102 93.3257 32.8729 92.6138 33.2165C91.1165 33.9528 89.0059 34.6647 87.9996 34.7382C86.5518 34.8364 86.2078 33.9528 86.2078 32.4802L86.2079 31.1791ZM97.6946 26.2948C98.5287 26.2213 99.1184 26.1722 99.5842 26.1478C100.124 26.123 100.247 26.344 100.223 26.5649C100.198 26.7858 100.1 27.1542 100.051 27.4977C99.9278 28.6019 99.6581 31.253 99.4863 32.7011C99.9278 32.6029 100.37 32.7255 100.345 33.1674C100.321 33.6336 100.124 33.8545 99.462 33.8545C97.9399 33.8545 96.6883 33.8793 95.3384 33.9036C95.3136 34.1981 95.0192 34.6647 94.6756 34.689C94.332 34.7134 94.0863 34.3207 94.0376 33.7562L93.6205 27.7921C93.5301 27.5898 93.398 27.4088 93.2331 27.2608C93.0681 27.1129 92.8738 27.0012 92.6629 26.9332C92.0249 26.7367 92.0002 26.1478 92.7121 26.0987C93.5608 26.0965 94.4076 26.1787 95.2401 26.344C96.0583 26.391 96.8789 26.3746 97.6946 26.2948V26.2948ZM95.2648 27.3503C95.2401 27.6939 95.2401 27.8413 95.2401 27.9396L95.3631 32.8973C96.3203 32.9221 97.3263 32.8482 98.3082 32.7747L98.357 27.2768C97.5715 27.252 96.1725 27.2768 95.2648 27.3503V27.3503ZM99.5842 13.8513C99.4809 14.4349 99.4234 15.0257 99.4124 15.6183V20.2572C99.6581 20.2325 99.9038 20.2325 100.124 20.2081C100.64 20.1511 101.122 19.9271 101.499 19.5701C102.055 19.5293 102.613 19.5374 103.168 19.5945C103.561 19.6436 104.101 19.8398 104.101 20.3799C104.101 20.8952 103.536 21.1897 102.849 21.1653C102.137 21.1409 100.836 21.1897 99.4124 21.2144V21.2636C99.4124 22.2699 99.462 25.4115 98.4552 25.4115C98.0873 25.4115 97.8172 24.8714 97.8172 23.7668V15.0538C97.3019 14.4402 96.3691 14.0722 95.8537 13.9001C95.1174 13.6548 95.1913 13.0659 95.952 13.0659C96.5656 13.0659 98.8971 13.3356 99.5842 13.8513V13.8513Z" fill="#30373F"/>
</g>
<defs>
<clipPath id="clip0_1554_2246">
<rect width="122" height="48" fill="white"/>
</clipPath>
</defs>
</svg>
