<svg width="50" height="25" viewBox="0 0 50 25" fill="none" xmlns="http://www.w3.org/2000/svg">
<path d="M10.278 18.136C10.014 18.292 9.714 18.436 9.378 18.568C9.042 18.7 8.694 18.814 8.334 18.91C7.986 19.006 7.632 19.078 7.272 19.126C6.924 19.186 6.6 19.216 6.3 19.216C4.704 19.216 3.45 18.796 2.538 17.956C1.638 17.104 1.188 15.898 1.188 14.338C1.188 13.126 1.356 12.022 1.692 11.026C2.04 10.018 2.538 9.16 3.186 8.452C3.834 7.732 4.62 7.174 5.544 6.778C6.48 6.382 7.536 6.184 8.712 6.184C9.504 6.184 10.182 6.238 10.746 6.346C11.31 6.442 11.778 6.592 12.15 6.796C12.114 6.976 12.06 7.198 11.988 7.462C11.928 7.726 11.85 8.002 11.754 8.29C11.67 8.578 11.58 8.866 11.484 9.154C11.388 9.43 11.298 9.676 11.214 9.892H10.746L10.368 7.3C10.152 7.24 9.882 7.198 9.558 7.174C9.234 7.138 8.922 7.12 8.622 7.12C7.698 7.12 6.888 7.312 6.192 7.696C5.508 8.068 4.938 8.578 4.482 9.226C4.026 9.874 3.684 10.636 3.456 11.512C3.228 12.376 3.114 13.306 3.114 14.302C3.114 15.154 3.234 15.844 3.474 16.372C3.714 16.888 4.008 17.29 4.356 17.578C4.716 17.866 5.094 18.058 5.49 18.154C5.898 18.25 6.27 18.292 6.606 18.28C7.086 18.292 7.53 18.22 7.938 18.064C8.346 17.908 8.628 17.77 8.784 17.65L9.576 14.014C9.264 13.99 8.976 13.936 8.712 13.852C8.448 13.768 8.19 13.678 7.938 13.582L8.064 13.06H12.474L12.366 13.582C12.234 13.666 12.072 13.744 11.88 13.816C11.688 13.888 11.442 13.954 11.142 14.014L10.278 18.136ZM13.4048 13.996C13.4048 12.904 13.5668 11.884 13.8908 10.936C14.2268 9.988 14.7068 9.166 15.3308 8.47C15.9548 7.762 16.7048 7.204 17.5808 6.796C18.4568 6.388 19.4468 6.184 20.5508 6.184C21.4268 6.184 22.1648 6.328 22.7648 6.616C23.3648 6.904 23.8448 7.282 24.2048 7.75C24.5768 8.218 24.8408 8.758 24.9968 9.37C25.1648 9.97 25.2488 10.594 25.2488 11.242C25.2488 12.202 25.1108 13.162 24.8348 14.122C24.5708 15.07 24.1568 15.922 23.5928 16.678C23.0288 17.434 22.3148 18.046 21.4508 18.514C20.5988 18.982 19.5848 19.216 18.4088 19.216C17.5448 19.216 16.7948 19.078 16.1588 18.802C15.5348 18.514 15.0188 18.136 14.6108 17.668C14.2028 17.188 13.8968 16.636 13.6928 16.012C13.5008 15.376 13.4048 14.704 13.4048 13.996ZM15.3308 14.014C15.3308 14.674 15.4148 15.268 15.5828 15.796C15.7628 16.324 16.0028 16.774 16.3028 17.146C16.6148 17.518 16.9748 17.806 17.3828 18.01C17.8028 18.202 18.2588 18.292 18.7508 18.28C19.6268 18.292 20.3528 18.082 20.9288 17.65C21.5168 17.206 21.9848 16.642 22.3328 15.958C22.6928 15.262 22.9448 14.5 23.0888 13.672C23.2448 12.832 23.3228 12.016 23.3228 11.224C23.3228 10.612 23.2508 10.054 23.1068 9.55C22.9748 9.046 22.7708 8.614 22.4948 8.254C22.2188 7.894 21.8768 7.618 21.4688 7.426C21.0728 7.222 20.6108 7.12 20.0828 7.12C19.2548 7.12 18.5408 7.336 17.9408 7.768C17.3408 8.2 16.8428 8.752 16.4468 9.424C16.0628 10.096 15.7808 10.84 15.6008 11.656C15.4208 12.472 15.3308 13.258 15.3308 14.014Z" fill="#30373F"/>
<g clip-path="url(#clip0_1551_437)">
<path d="M35 13.5H49L45.8482 10.5" stroke="#30373F"/>
</g>
<rect y="24" width="50" height="1" fill="#30373F"/>
<defs>
<clipPath id="clip0_1551_437">
<rect width="16" height="16" fill="white" transform="translate(34 4)"/>
</clipPath>
</defs>
</svg>
