<svg width="22" height="22" viewBox="0 0 22 22" fill="none" xmlns="http://www.w3.org/2000/svg">
<path d="M20.4875 9.89997L11.1375 1.4208C11.0458 1.32913 10.9083 1.32913 10.8167 1.4208L1.5125 9.89997C1.42083 9.99163 1.375 10.0833 1.375 10.2208V20.3958C1.375 20.5333 1.46667 20.625 1.60417 20.625H20.3958C20.5333 20.625 20.625 20.5333 20.625 20.3958V10.2208C20.625 10.0833 20.5792 9.99163 20.4875 9.89997ZM18.3333 18.3333H12.1458V13.9791C12.1458 13.8416 12.0542 13.75 11.9167 13.75H10.0833C9.94583 13.75 9.85417 13.8416 9.85417 13.9791V18.3333H3.66667V11.0458L11 4.39997L18.3333 11.0458V18.3333Z" fill="#979B9F"/>
</svg>
