<svg width="22" height="22" viewBox="0 0 22 22" fill="none" xmlns="http://www.w3.org/2000/svg">
<rect width="22" height="22" fill="white"/>
<path d="M19.0207 13.75H17.8749V7.79163C17.8749 4.03329 14.7582 0.916626 10.9999 0.916626C7.24154 0.916626 4.12488 4.03329 4.12488 7.79163V13.75H2.97904C2.84154 13.75 2.74988 13.8416 2.74988 13.9791V15.8125C2.74988 15.95 2.84154 16.0416 2.97904 16.0416H19.0207C19.1582 16.0416 19.2499 15.95 19.2499 15.8125V13.9791C19.2499 13.8416 19.1582 13.75 19.0207 13.75ZM6.41654 7.79163C6.41654 5.27079 8.47904 3.20829 10.9999 3.20829C13.5207 3.20829 15.5832 5.27079 15.5832 7.79163V13.75H6.41654V7.79163Z" fill="#979B9F"/>
<path d="M10.9999 21.0833C12.0124 21.0833 12.8332 20.2625 12.8332 19.25C12.8332 18.2374 12.0124 17.4166 10.9999 17.4166C9.98736 17.4166 9.16654 18.2374 9.16654 19.25C9.16654 20.2625 9.98736 21.0833 10.9999 21.0833Z" fill="#979B9F"/>
</svg>
