<svg width="22" height="22" viewBox="0 0 22 22" fill="none" xmlns="http://www.w3.org/2000/svg">
<path d="M14.2083 10.9083C15.5833 9.89996 16.5 8.29579 16.5 6.50829C16.5458 3.52913 14.1625 1.05413 11.2292 0.916625C8.06668 0.779125 5.50001 3.29996 5.50001 6.41663C5.50001 8.24996 6.41668 9.89996 7.79168 10.9083C4.30834 12.1916 1.83334 15.5375 1.83334 19.4791C1.83334 19.6166 1.83334 19.8 1.83334 19.9375C1.83334 20.075 1.92501 20.1666 2.06251 20.1666H3.89584C4.03334 20.1666 4.12501 20.075 4.12501 19.9375C4.12501 19.8 4.12501 19.6625 4.12501 19.4791C4.12501 15.675 7.19584 12.6041 11 12.6041C14.8042 12.6041 17.875 15.675 17.875 19.4791C17.875 19.6166 17.875 19.7541 17.875 19.9375C17.875 20.075 17.9667 20.1666 18.1042 20.1666H19.9375C20.075 20.1666 20.1667 20.075 20.1667 19.9375C20.1667 19.8 20.1667 19.6166 20.1667 19.4791C20.1667 15.5375 17.6917 12.1916 14.2083 10.9083ZM11 9.62496C9.21251 9.62496 7.79168 8.20413 7.79168 6.41663C7.79168 4.62913 9.21251 3.20829 11 3.20829C12.7875 3.20829 14.2083 4.62913 14.2083 6.41663C14.2083 8.20413 12.7875 9.62496 11 9.62496Z" fill="#979B9F"/>
</svg>
