<svg width="22" height="22" viewBox="0 0 22 22" fill="none" xmlns="http://www.w3.org/2000/svg">
<path d="M2.06251 12.1459H19.9375C20.075 12.1459 20.1667 12.0542 20.1667 11.9167V10.0834C20.1667 9.94587 20.075 9.85421 19.9375 9.85421H2.06251C1.92501 9.85421 1.83334 9.94587 1.83334 10.0834V11.9167C1.83334 12.0542 1.92501 12.1459 2.06251 12.1459Z" fill="#979B9F"/>
<path d="M2.06251 5.50004H19.9375C20.075 5.50004 20.1667 5.40837 20.1667 5.27087V3.43754C20.1667 3.30004 20.075 3.20837 19.9375 3.20837H2.06251C1.92501 3.20837 1.83334 3.30004 1.83334 3.43754V5.27087C1.83334 5.40837 1.92501 5.50004 2.06251 5.50004Z" fill="#979B9F"/>
<path d="M2.06251 18.7917H19.9375C20.075 18.7917 20.1667 18.7 20.1667 18.5625V16.7292C20.1667 16.5917 20.075 16.5 19.9375 16.5H2.06251C1.92501 16.5 1.83334 16.5917 1.83334 16.7292V18.5625C1.83334 18.7 1.92501 18.7917 2.06251 18.7917Z" fill="#979B9F"/>
</svg>
